<svg width="1280" height="640" viewBox="0 0 1280 640" xmlns="http://www.w3.org/2000/svg"><rect x="0" y="0" width="1280" height="640" fill="#FFFFFF"/><rect x="1" y="1" width="1278" height="638" fill="none" stroke="#E7E7E7" stroke-width="2"/><rect x="0" y="0" width="1280" height="6" fill="#336EE8"/><g transform="translate(96,212)"><rect width="168" height="168" rx="42" fill="#336EE8"/><rect x="48" y="60" width="74" height="14" rx="7" fill="#FFFFFF"/><rect x="48" y="94" width="52" height="14" rx="7" fill="#FFFFFF"/></g><text x="312" y="268" font-family="'Inter','PingFang SC','Microsoft YaHei',system-ui,-apple-system,sans-serif" font-size="96" font-weight="700" letter-spacing="-1" fill="#262626">Aham UI</text><text x="316" y="332" font-family="'Inter','PingFang SC','Microsoft YaHei',system-ui,-apple-system,sans-serif" font-size="40" font-weight="500" fill="#6E6E6E">供 AI 消费的设计系统</text><text x="316" y="382" font-family="'Inter','PingFang SC','Microsoft YaHei',system-ui,-apple-system,sans-serif" font-size="26" fill="#9B9B9B">单一事实源 · 八层规范 · 亮/暗双色 · 内容优先</text><g transform="translate(96,456)"><rect x="0" y="0" width="38" height="38" rx="8" fill="#336EE8"/><rect x="50" y="0" width="38" height="38" rx="8" fill="#FFFFFF"/><rect x="50" y="0" width="38" height="38" rx="8" fill="none" stroke="#E7E7E7" stroke-width="1.5"/><rect x="100" y="0" width="38" height="38" rx="8" fill="#F3F3F3"/><rect x="150" y="0" width="38" height="38" rx="8" fill="#E7E7E7"/><rect x="200" y="0" width="38" height="38" rx="8" fill="#262626"/></g><text x="98" y="560" font-family="'Inter','PingFang SC','Microsoft YaHei',system-ui,-apple-system,sans-serif" font-size="26" fill="#6E6E6E">把灵光一现，做成能用的 AI 工具。</text><text x="1182" y="560" font-family="'Inter','PingFang SC','Microsoft YaHei',system-ui,-apple-system,sans-serif" font-size="26" font-weight="700" text-anchor="end" fill="#336EE8">Design System</text></svg>